PathFileType	4	(X/Y/Z)	C:\Users\WrightLab\Desktop\Jo\P1.2Trial21.trc
DataRate	CameraRate	NumFrames	NumMarkers	Units	OrigDataRate	OrigDataStartFrame	OrigNumFrames
100.00	100.00	       14	19	mm	100.00	248	       660
Frame#	Time	Headset_Front			Headset_Back			Headset_Left			Headset_Right			Left_Shoulder			Right_Shoulder			Sternum			C7			Left Elbow			Right Elbow			Left Wrist			Right Wrist			Left ASIS			Right ASIS			S2			Left Knee			Right Knee			Left Ankle			Right Ankle			
		X1	Y1	Z1	X2	Y2	Z2	X3	Y3	Z3	X4	Y4	Z4	X5	Y5	Z5	X6	Y6	Z6	X7	Y7	Z7	X8	Y8	Z8	X9	Y9	Z9	X10	Y10	Z10	X11	Y11	Z11	X12	Y12	Z12	X13	Y13	Z13	X14	Y14	Z14	X15	Y15	Z15	X16	Y16	Z16	X17	Y17	Z17	X18	Y18	Z18	X19	Y19	Z19	

248	2.470	-485.64099	1408.83447	109.99205	-572.26508	1514.02478	-164.06274	-431.70364	1454.99243	-87.39075	-618.64948	1445.42725	44.52822	-358.69458	1241.45581	-182.52020	-748.98004	1254.78076	-2.02218	-504.16803	1191.57678	18.46627	-602.02014	1303.00977	-197.04453	-319.48309	947.91138	-214.42627	-822.56830	1001.05688	-1.73198	-238.39223	753.19904	-88.68806	-873.82605	762.58228	101.26723	-382.61325	876.89642	-33.11868	-652.61694	870.58405	66.59960	-619.30695	901.92462	-249.34952	-455.28073	428.44748	-44.06557	-686.09589	486.34814	157.40393	-559.23071	78.15240	-111.85939	-765.11847	159.97575	15.72372	
249	2.480	-480.97092	1409.64246	118.26331	-569.92450	1514.33936	-155.05803	-428.71622	1455.26062	-78.97321	-614.81610	1445.73450	53.12165	-355.97525	1241.31677	-175.36513	-744.64734	1253.68445	4.29390	-499.35052	1191.05542	26.81102	-599.33856	1303.31396	-188.65239	-315.58743	948.36383	-206.84491	-818.53772	1001.23730	5.87195	-234.06151	753.70801	-80.71163	-872.42902	762.55334	107.56959	-380.54568	877.78857	-28.42595	-646.62134	871.20746	77.37836	-619.29242	902.14032	-240.23813	-453.51984	428.19452	-41.29660	-675.05499	487.22296	167.86349	-559.21600	77.67720	-112.55378	-756.05255	155.05792	44.77298	
250	2.490	-475.80753	1409.40759	126.64360	-567.36963	1514.07288	-145.87439	-425.99808	1455.25562	-70.65594	-610.95844	1445.61450	62.00311	-353.11462	1241.17957	-168.02162	-740.07013	1255.75464	18.42524	-494.98383	1191.31104	35.41369	-596.30249	1303.13916	-178.98972	-311.61404	948.67706	-199.24420	-815.86566	1001.73383	13.68355	-228.03577	754.54480	-73.73179	-870.82343	763.04407	114.46194	-378.30887	877.37738	-22.96713	-639.81305	871.24548	87.51225	-619.65668	901.87067	-231.08498	-452.02405	427.22116	-39.10173	-663.12335	487.14172	176.94200	-559.66925	77.78777	-112.63303	-744.48816	149.23491	74.22619	
251	2.500	-471.27625	1409.99670	135.06255	-564.71832	1513.67664	-137.04762	-423.24179	1455.53870	-61.24255	-606.38232	1445.00256	71.39352	-350.00360	1240.11816	-160.08533	-735.92883	1255.46729	27.16955	-489.86417	1191.03125	42.53368	-592.75708	1302.72961	-169.50578	-307.57416	948.39429	-191.72293	-813.51270	1002.53125	21.95732	-222.86636	754.22693	-65.70302	-869.14264	762.91327	120.78677	-375.99216	877.70093	-17.63393	-632.83411	870.31641	98.13781	-619.80066	901.87091	-221.27776	-451.61246	426.69061	-37.04649	-651.45630	487.08707	186.06770	-560.29401	78.46948	-112.28427	-732.06201	143.88672	102.67844	
252	2.510	-466.43625	1410.08411	143.19247	-562.10986	1513.49646	-128.01288	-419.81894	1455.87732	-52.44562	-602.42828	1444.73340	81.57319	-346.50381	1240.22498	-152.68877	-731.31500	1255.17285	37.02198	-485.27838	1191.18481	50.60298	-589.80298	1302.68982	-160.18645	-304.74155	946.89105	-181.13556	-810.32745	1003.08228	30.31893	-218.17238	754.22375	-58.58466	-867.09009	762.44739	128.00781	-375.65652	876.99359	-13.97436	-626.55090	868.81732	106.88088	-620.13501	901.47913	-210.94730	-451.08246	426.21494	-34.03652	-639.72852	486.14481	194.52431	-560.59381	78.56887	-112.05979	-716.61163	140.73634	132.72839	
253	2.520	-461.93933	1409.80798	152.02312	-559.29926	1512.81604	-119.16405	-416.94833	1455.12012	-43.23394	-598.02222	1443.89038	90.82658	-343.92026	1239.35400	-144.70828	-727.41302	1253.67737	45.10466	-480.74756	1190.27319	60.00128	-586.73987	1302.15698	-151.89626	-299.90546	947.10663	-175.96649	-807.61646	1003.49493	39.05596	-211.05525	755.20380	-51.54778	-864.80414	762.34406	134.71736	-370.54462	876.51855	-5.46328	-619.74536	867.85193	118.94295	-620.63898	901.12665	-201.20287	-451.08252	424.90314	-32.18227	-628.80511	486.10941	203.03828	-560.63654	78.90293	-111.87759	-701.17896	136.95145	162.40004	
254	2.530	-457.86377	1410.45923	160.84370	-556.63165	1512.17627	-109.01234	-414.23956	1455.21338	-34.07441	-593.08057	1443.18689	100.10339	-340.17120	1238.61768	-136.84514	-722.91650	1254.45898	57.06713	-476.09677	1189.33728	68.25195	-583.00092	1301.65564	-140.84830	-296.10004	946.71765	-168.36847	-805.16766	1003.34894	47.78435	-208.16228	753.98901	-44.62440	-862.66669	762.34875	141.30592	-370.89886	875.31177	-1.33385	-614.32568	866.61896	126.40703	-620.88507	901.31952	-191.36475	-449.75247	424.59937	-28.44966	-617.79498	484.56708	211.19862	-560.23871	79.07974	-111.83451	-684.73657	134.53262	191.76755	
255	2.540	-451.60321	1408.66089	169.20607	-553.48669	1511.49512	-100.16885	-407.56393	1455.91614	-31.41129	-588.69446	1442.23938	110.10965	-337.09857	1237.39880	-129.16817	-718.88153	1253.31604	66.08274	-471.63327	1188.24939	77.47475	-579.71277	1300.79846	-132.32768	-292.32333	945.33289	-160.07790	-801.82764	1003.49274	56.87303	-201.94447	753.85284	-37.14116	-860.30035	762.04865	148.08507	-369.17242	874.11658	2.71061	-607.04572	866.19568	138.01021	-621.33453	900.80603	-180.62862	-448.28830	424.01202	-25.46792	-607.03070	483.08496	218.17706	-560.09406	79.24844	-111.65742	-667.04883	133.26747	221.11885	
256	2.550	-447.00958	1408.27405	178.33488	-550.77917	1511.03308	-90.97691	-404.29190	1455.53955	-21.90726	-584.41516	1440.92847	119.89119	-333.36462	1236.15515	-121.49110	-713.52869	1253.26697	77.97197	-466.26535	1187.46667	86.95630	-576.73712	1300.30469	-123.40147	-287.97803	944.38531	-153.23834	-798.63007	1003.45404	66.37198	-197.86125	752.81934	-30.04442	-857.82532	761.59784	155.82802	-366.41849	872.65771	9.58017	-601.59216	865.08374	148.37978	-621.14612	900.70599	-170.67603	-448.01645	422.83350	-22.11597	-596.42004	480.28949	225.14775	-560.32831	79.39245	-111.38180	-648.02283	133.15663	249.00163	
257	2.560	-441.84186	1407.33069	187.23524	-547.77283	1509.02148	-80.45736	-401.01321	1455.20496	-14.89968	-580.06226	1439.86169	129.69753	-330.12192	1235.28027	-113.35712	-709.83356	1252.98828	87.61508	-461.45282	1186.24438	95.46723	-572.77039	1298.94666	-112.83545	-284.51801	943.59265	-145.58257	-795.51135	1002.63928	76.05185	-193.01843	751.79517	-23.34177	-855.32635	760.92554	164.04214	-363.44531	872.47180	17.66525	-596.01245	863.93365	157.70901	-620.97675	900.32092	-159.79858	-447.20941	421.27032	-18.28350	-587.62115	478.43658	232.32063	-560.30225	79.49088	-110.67010	-627.88489	134.52370	275.38324	
258	2.570	-436.88986	1406.48938	196.03249	-544.73633	1508.32300	-70.71626	-396.70169	1454.22791	-5.02602	-575.25818	1438.00073	139.77611	-327.01035	1233.28662	-104.80357	-705.15979	1250.96033	97.41499	-456.75812	1184.97217	105.03600	-569.40381	1297.94849	-103.93393	-280.36041	942.76154	-139.01181	-792.52051	1002.15918	84.58934	-188.86272	750.59875	-15.91218	-852.63135	760.37299	171.96788	-361.36432	870.05322	23.81876	-590.77020	862.83606	168.45909	-620.42120	899.74408	-149.50894	-446.35062	421.56790	-13.80842	-578.92950	476.59540	239.98935	-560.32617	80.20158	-110.52016	-607.92548	138.14917	300.24500	
259	2.580	-432.55954	1405.40405	205.66452	-542.00995	1506.89624	-61.08218	-393.48935	1453.44617	3.58816	-569.67365	1435.75134	151.19745	-323.48743	1232.06628	-96.09402	-700.41205	1250.04785	107.62907	-452.08057	1183.43396	113.74234	-566.60339	1296.58228	-93.88739	-277.08109	941.26318	-130.67029	-789.49506	1002.19861	94.15437	-184.61928	748.78381	-9.69293	-849.83105	759.93890	180.08141	-358.64896	868.02020	31.33200	-584.94159	861.16809	178.71967	-619.10168	899.03857	-138.02522	-443.47983	421.04834	-7.25597	-570.85950	475.18719	247.42387	-560.27386	80.58491	-109.86616	-588.70325	143.50069	322.69843	
260	2.590	-427.17206	1403.99475	214.72330	-538.50342	1505.59790	-50.58920	-389.79681	1452.76343	12.90299	-565.27393	1433.97363	161.52415	-320.21729	1230.52246	-88.38515	-696.55933	1249.27686	118.30283	-446.98132	1182.05347	122.52061	-562.55585	1295.39929	-83.79953	-273.46881	939.71295	-123.29407	-785.62903	1000.75641	103.82749	-180.77754	747.12939	-2.94421	-847.18915	758.55420	189.76228	-355.13376	867.62939	40.69517	-580.09076	860.32098	189.93144	-617.76886	898.45166	-127.74417	-442.33844	418.30939	-6.30690	-562.34320	473.76385	256.03040	-560.19330	80.71557	-109.02351	-569.89966	150.77667	343.97345	
261	2.600	-421.24957	1401.69543	223.68118	-535.59796	1504.31555	-40.61841	-386.10812	1451.38440	21.81113	-560.54102	1432.03430	171.57376	-316.83313	1229.08948	-79.75879	-690.73267	1247.32263	130.27066	-441.45236	1180.51416	131.94443	-559.00409	1293.61389	-73.27536	-269.82492	937.82611	-116.13200	-781.54431	999.64618	113.19778	-177.33054	744.83191	3.65839	-844.49927	757.65961	198.80923	-352.06195	865.72998	46.39673	-574.21027	858.41498	201.53107	-615.97455	897.82495	-117.00997	-439.97977	416.29126	-2.68567	-554.66162	473.04849	264.84555	-560.29523	80.52941	-107.60545	-552.29871	159.21680	364.22498	
